<svg xmlns="http://www.w3.org/2000/svg" width="375" viewBox="0 0 375 375" height="375" version="1.0"><defs><clipPath id="a"><path d="M 0 25.226562 L 374.851562 25.226562 L 374.851562 349.402344 L 0 349.402344 Z M 0 25.226562"/></clipPath><clipPath id="b"><path d="M 11.871094 36.460938 L 362.257812 36.460938 L 362.257812 339.664062 L 11.871094 339.664062 Z M 11.871094 36.460938"/></clipPath><clipPath id="c"><path d="M 22.371094 44.964844 L 351.785156 44.964844 L 351.785156 329.820312 L 22.371094 329.820312 Z M 22.371094 44.964844"/></clipPath></defs><g clip-path="url(#a)"><path fill="#D291BC" d="M 274.5625 36.457031 L 361.703125 187.3125 L 274.5625 338.171875 L 100.289062 338.171875 L 13.078125 187.3125 L 100.289062 36.457031 L 274.5625 36.457031 M 281.082031 25.226562 L 93.769531 25.226562 L 0.113281 187.3125 L 93.769531 349.402344 L 281.082031 349.402344 L 374.738281 187.3125 Z M 281.082031 25.226562"/></g><g clip-path="url(#b)"><path fill="#FEC8D8" d="M 268.511719 46.964844 L 349.960938 188.0625 L 268.511719 329.160156 L 105.613281 329.160156 L 24.097656 188.0625 L 105.613281 46.964844 L 268.511719 46.964844 M 274.605469 36.460938 L 99.523438 36.460938 L 11.980469 188.0625 L 99.523438 339.664062 L 274.605469 339.664062 L 362.144531 188.0625 Z M 274.605469 36.460938"/></g><g clip-path="url(#c)"><path fill="#B0E5C6" d="M 263.652344 54.835938 L 340.226562 187.394531 L 263.652344 319.953125 L 110.503906 319.953125 L 33.867188 187.394531 L 110.503906 54.835938 L 263.652344 54.835938 M 269.378906 44.964844 L 104.777344 44.964844 L 22.476562 187.394531 L 104.777344 329.820312 L 269.378906 329.820312 L 351.683594 187.394531 Z M 269.378906 44.964844"/></g><g fill="#FFF"><g><g><path d="M 22.953125 0 C 18.546875 0 14.96875 -1.347656 12.21875 -4.046875 C 9.46875 -6.742188 8.09375 -10.117188 8.09375 -14.171875 L 8.09375 -80.328125 C 8.09375 -84.378906 9.46875 -87.753906 12.21875 -90.453125 C 14.96875 -93.160156 18.546875 -94.515625 22.953125 -94.515625 L 51.3125 -94.515625 C 57.070312 -94.515625 62.203125 -93.722656 66.703125 -92.140625 C 71.203125 -90.566406 75.003906 -88.363281 78.109375 -85.53125 C 81.210938 -82.695312 83.597656 -79.34375 85.265625 -75.46875 C 86.929688 -71.601562 87.765625 -67.375 87.765625 -62.78125 C 87.765625 -58.1875 86.929688 -53.953125 85.265625 -50.078125 C 83.597656 -46.210938 81.210938 -42.863281 78.109375 -40.03125 C 75.003906 -37.195312 71.203125 -34.988281 66.703125 -33.40625 C 62.203125 -31.832031 57.070312 -31.046875 51.3125 -31.046875 L 37.796875 -31.046875 L 37.796875 -14.171875 C 37.796875 -10.117188 36.421875 -6.742188 33.671875 -4.046875 C 30.929688 -1.347656 27.359375 0 22.953125 0 Z M 23.625 -10.671875 C 24.257812 -10.671875 24.578125 -10.984375 24.578125 -11.609375 L 24.578125 -44.421875 L 53.875 -44.421875 C 55.945312 -44.421875 58.109375 -44.820312 60.359375 -45.625 C 62.609375 -46.4375 64.675781 -47.609375 66.5625 -49.140625 C 68.445312 -50.671875 70 -52.609375 71.21875 -54.953125 C 72.4375 -57.296875 73.046875 -59.992188 73.046875 -63.046875 C 73.046875 -65.929688 72.503906 -68.566406 71.421875 -70.953125 C 70.335938 -73.335938 68.894531 -75.363281 67.09375 -77.03125 C 65.300781 -78.695312 63.210938 -80 60.828125 -80.9375 C 58.441406 -81.882812 55.941406 -82.359375 53.328125 -82.359375 L 23.625 -82.359375 C 22.90625 -82.359375 22.546875 -82 22.546875 -81.28125 L 22.546875 -11.609375 C 22.546875 -10.984375 22.90625 -10.671875 23.625 -10.671875 Z M 24.578125 -80.328125 L 53.328125 -80.328125 C 58.367188 -79.878906 62.578125 -78.191406 65.953125 -75.265625 C 69.328125 -72.347656 71.015625 -68.273438 71.015625 -63.046875 C 71.015625 -60.710938 70.519531 -58.53125 69.53125 -56.5 C 68.539062 -54.476562 67.234375 -52.722656 65.609375 -51.234375 C 63.992188 -49.753906 62.148438 -48.585938 60.078125 -47.734375 C 58.015625 -46.878906 55.898438 -46.453125 53.734375 -46.453125 L 24.578125 -46.453125 Z M 51.3125 -58.0625 C 53.019531 -58.0625 54.34375 -58.507812 55.28125 -59.40625 C 56.226562 -60.300781 56.703125 -61.425781 56.703125 -62.78125 C 56.703125 -64.132812 56.226562 -65.257812 55.28125 -66.15625 C 54.34375 -67.0625 53.019531 -67.515625 51.3125 -67.515625 L 37.796875 -67.515625 L 37.796875 -58.0625 Z M 51.3125 -58.0625" transform="translate(92.99 235.78)"/></g></g></g><g fill="#FFF"><g><g><path d="M 54 2.703125 C 46.894531 2.703125 40.300781 1.421875 34.21875 -1.140625 C 28.144531 -3.710938 22.878906 -7.222656 18.421875 -11.671875 C 13.972656 -16.128906 10.460938 -21.394531 7.890625 -27.46875 C 5.328125 -33.550781 4.046875 -40.144531 4.046875 -47.25 C 4.046875 -54.363281 5.328125 -60.957031 7.890625 -67.03125 C 10.460938 -73.113281 13.972656 -78.378906 18.421875 -82.828125 C 22.878906 -87.285156 28.144531 -90.796875 34.21875 -93.359375 C 40.300781 -95.929688 46.894531 -97.21875 54 -97.21875 C 60.21875 -97.21875 65.910156 -96.289062 71.078125 -94.4375 C 76.253906 -92.59375 80.664062 -90.296875 84.3125 -87.546875 C 87.957031 -84.804688 90.789062 -81.859375 92.8125 -78.703125 C 94.84375 -75.554688 95.859375 -72.722656 95.859375 -70.203125 C 95.859375 -68.140625 95.453125 -66.207031 94.640625 -64.40625 C 93.835938 -62.601562 92.757812 -61.023438 91.40625 -59.671875 C 90.050781 -58.328125 88.472656 -57.269531 86.671875 -56.5 C 84.878906 -55.738281 82.992188 -55.359375 81.015625 -55.359375 C 77.953125 -55.359375 75.5625 -56.007812 73.84375 -57.3125 C 72.132812 -58.613281 70.921875 -59.757812 70.203125 -60.75 C 69.484375 -61.75 68.628906 -62.8125 67.640625 -63.9375 C 66.648438 -65.0625 65.476562 -66.09375 64.125 -67.03125 C 62.78125 -67.976562 61.253906 -68.742188 59.546875 -69.328125 C 57.835938 -69.910156 55.988281 -70.203125 54 -70.203125 C 51.300781 -70.203125 48.738281 -69.640625 46.3125 -68.515625 C 43.882812 -67.390625 41.722656 -65.8125 39.828125 -63.78125 C 37.941406 -61.757812 36.457031 -59.332031 35.375 -56.5 C 34.289062 -53.664062 33.75 -50.582031 33.75 -47.25 C 33.75 -43.832031 34.289062 -40.726562 35.375 -37.9375 C 36.457031 -35.144531 37.941406 -32.734375 39.828125 -30.703125 C 41.722656 -28.679688 43.882812 -27.109375 46.3125 -25.984375 C 48.738281 -24.859375 51.300781 -24.296875 54 -24.296875 C 55.988281 -24.296875 57.835938 -24.585938 59.546875 -25.171875 C 61.253906 -25.765625 62.78125 -26.53125 64.125 -27.46875 C 65.476562 -28.414062 66.648438 -29.453125 67.640625 -30.578125 C 68.628906 -31.703125 69.484375 -32.757812 70.203125 -33.75 C 70.921875 -34.738281 72.132812 -35.882812 73.84375 -37.1875 C 75.5625 -38.5 77.953125 -39.15625 81.015625 -39.15625 C 82.992188 -39.15625 84.878906 -38.75 86.671875 -37.9375 C 88.472656 -37.125 90.050781 -36.039062 91.40625 -34.6875 C 92.757812 -33.34375 93.835938 -31.769531 94.640625 -29.96875 C 95.453125 -28.164062 95.859375 -26.273438 95.859375 -24.296875 C 95.859375 -21.773438 94.84375 -18.941406 92.8125 -15.796875 C 90.789062 -12.648438 87.957031 -9.703125 84.3125 -6.953125 C 80.664062 -4.203125 76.253906 -1.90625 71.078125 -0.0625 C 65.910156 1.78125 60.21875 2.703125 54 2.703125 Z M 52.921875 -9.453125 C 58.867188 -9.453125 64.382812 -10.867188 69.46875 -13.703125 C 74.550781 -16.535156 78.664062 -20.296875 81.8125 -24.984375 C 82.175781 -25.515625 82.085938 -25.960938 81.546875 -26.328125 C 81.003906 -26.867188 80.554688 -26.78125 80.203125 -26.0625 C 77.046875 -21.46875 73.0625 -17.882812 68.25 -15.3125 C 63.4375 -12.75 58.328125 -11.46875 52.921875 -11.46875 C 48.335938 -11.46875 43.992188 -12.390625 39.890625 -14.234375 C 35.796875 -16.085938 32.21875 -18.632812 29.15625 -21.875 C 26.101562 -25.113281 23.695312 -28.890625 21.9375 -33.203125 C 20.1875 -37.523438 19.3125 -42.117188 19.3125 -46.984375 C 19.3125 -51.929688 20.1875 -56.566406 21.9375 -60.890625 C 23.695312 -65.210938 26.101562 -68.992188 29.15625 -72.234375 C 32.21875 -75.472656 35.796875 -78.015625 39.890625 -79.859375 C 43.992188 -81.703125 48.335938 -82.625 52.921875 -82.625 C 58.328125 -82.625 63.414062 -81.34375 68.1875 -78.78125 C 72.957031 -76.21875 76.914062 -72.640625 80.0625 -68.046875 C 80.425781 -67.503906 80.878906 -67.414062 81.421875 -67.78125 C 81.953125 -68.226562 82.039062 -68.722656 81.6875 -69.265625 C 78.257812 -74.035156 74.023438 -77.789062 68.984375 -80.53125 C 63.953125 -83.28125 58.597656 -84.65625 52.921875 -84.65625 C 47.609375 -84.65625 42.769531 -83.550781 38.40625 -81.34375 C 34.039062 -79.144531 30.28125 -76.265625 27.125 -72.703125 C 23.976562 -69.148438 21.550781 -65.125 19.84375 -60.625 C 18.132812 -56.125 17.28125 -51.578125 17.28125 -46.984375 C 17.28125 -41.859375 18.25 -37 20.1875 -32.40625 C 22.125 -27.8125 24.710938 -23.828125 27.953125 -20.453125 C 31.191406 -17.078125 34.96875 -14.398438 39.28125 -12.421875 C 43.601562 -10.441406 48.148438 -9.453125 52.921875 -9.453125 Z M 52.921875 -9.453125" transform="translate(183.448 235.78)"/></g></g></g></svg>