<svg xmlns="http://www.w3.org/2000/svg" width="375" viewBox="0 0 375 375" height="375" version="1.0"><defs><clipPath id="a"><path d="M 26.5625 48.214844 L 348.3125 48.214844 L 348.3125 326.464844 L 26.5625 326.464844 Z M 26.5625 48.214844"/></clipPath><clipPath id="b"><path d="M 36.75 57.859375 L 337.5 57.859375 L 337.5 318.109375 L 36.75 318.109375 Z M 36.75 57.859375"/></clipPath><clipPath id="c"><path d="M 45.761719 65.15625 L 328.511719 65.15625 L 328.511719 309.65625 L 45.761719 309.65625 Z M 45.761719 65.15625"/></clipPath></defs><g clip-path="url(#a)"><path fill="#D291BC" d="M 262.230469 57.855469 L 337.023438 187.339844 L 262.230469 316.828125 L 112.644531 316.828125 L 37.785156 187.339844 L 112.644531 57.855469 L 262.230469 57.855469 M 267.824219 48.214844 L 107.046875 48.214844 L 26.660156 187.339844 L 107.046875 326.464844 L 267.824219 326.464844 L 348.214844 187.339844 Z M 267.824219 48.214844"/></g><g clip-path="url(#b)"><path fill="#FEC8D8" d="M 257.035156 66.875 L 326.945312 187.984375 L 257.035156 309.09375 L 117.214844 309.09375 L 47.246094 187.984375 L 117.214844 66.875 L 257.035156 66.875 M 262.265625 57.859375 L 111.984375 57.859375 L 36.84375 187.984375 L 111.984375 318.109375 L 262.265625 318.109375 L 337.40625 187.984375 Z M 262.265625 57.859375"/></g><g clip-path="url(#c)"><path fill="#B0E5C6" d="M 252.863281 73.628906 L 318.589844 187.40625 L 252.863281 301.1875 L 121.414062 301.1875 L 55.628906 187.40625 L 121.414062 73.628906 L 252.863281 73.628906 M 257.78125 65.15625 L 116.496094 65.15625 L 45.851562 187.40625 L 116.496094 309.65625 L 257.78125 309.65625 L 328.421875 187.40625 Z M 257.78125 65.15625"/></g><g><g><g><path d="M 20.9375 10.125 L 7.75 10.125 C 6.382812 10.125 5.390625 9.8125 4.765625 9.1875 C 4.140625 8.5625 3.828125 7.570312 3.828125 6.21875 L 3.828125 -48.9375 C 3.828125 -49.675781 3.925781 -50.300781 4.125 -50.8125 C 4.320312 -51.320312 4.617188 -51.75 5.015625 -52.09375 L 16 -61.359375 C 16.28125 -61.585938 16.660156 -61.769531 17.140625 -61.90625 C 17.628906 -62.050781 18.15625 -62.125 18.71875 -62.125 L 44.765625 -62.125 C 48.796875 -62.125 52.171875 -61.695312 54.890625 -60.84375 C 57.617188 -60 59.773438 -58.8125 61.359375 -57.28125 C 62.953125 -55.75 64.070312 -53.90625 64.71875 -51.75 C 65.375 -49.59375 65.703125 -47.238281 65.703125 -44.6875 L 65.703125 -33.78125 C 65.703125 -31.0625 65.316406 -28.582031 64.546875 -26.34375 C 63.785156 -24.101562 62.46875 -22.1875 60.59375 -20.59375 L 49.53125 -11.40625 C 48.113281 -10.21875 46.285156 -9.238281 44.046875 -8.46875 C 41.804688 -7.695312 39.066406 -7.257812 35.828125 -7.15625 L 35.828125 -3.0625 C 35.828125 -2.320312 35.726562 -1.695312 35.53125 -1.1875 C 35.332031 -0.675781 35.035156 -0.253906 34.640625 0.078125 L 23.578125 9.28125 C 23.347656 9.507812 22.988281 9.707031 22.5 9.875 C 22.019531 10.039062 21.5 10.125 20.9375 10.125 Z M 31.921875 0 C 32.992188 0 33.769531 -0.238281 34.25 -0.71875 C 34.738281 -1.207031 34.984375 -1.988281 34.984375 -3.0625 L 34.984375 -17.1875 L 44.765625 -17.1875 C 52.484375 -17.1875 57.757812 -18.71875 60.59375 -21.78125 C 63.4375 -24.851562 64.859375 -28.851562 64.859375 -33.78125 L 64.859375 -44.6875 C 64.859375 -49.625 63.4375 -53.625 60.59375 -56.6875 C 57.757812 -59.75 52.484375 -61.28125 44.765625 -61.28125 L 18.71875 -61.28125 C 17.644531 -61.28125 16.863281 -61.035156 16.375 -60.546875 C 15.894531 -60.066406 15.65625 -59.289062 15.65625 -58.21875 L 15.65625 -3.0625 C 15.65625 -1.988281 15.894531 -1.207031 16.375 -0.71875 C 16.863281 -0.238281 17.644531 0 18.71875 0 Z M 43.578125 -24.421875 L 26.046875 -24.421875 L 26.046875 -7.65625 L 25.1875 -7.65625 L 25.1875 -53.625 L 43.578125 -53.625 C 46.242188 -53.625 48.410156 -53.320312 50.078125 -52.71875 C 51.753906 -52.125 53.046875 -51.316406 53.953125 -50.296875 C 54.867188 -49.273438 55.492188 -48.054688 55.828125 -46.640625 C 56.171875 -45.222656 56.34375 -43.691406 56.34375 -42.046875 L 56.34375 -35.75 C 56.34375 -34.101562 56.171875 -32.582031 55.828125 -31.1875 C 55.492188 -29.800781 54.867188 -28.609375 53.953125 -27.609375 C 53.046875 -26.617188 51.753906 -25.835938 50.078125 -25.265625 C 48.410156 -24.703125 46.242188 -24.421875 43.578125 -24.421875 Z M 26.046875 -25.28125 L 43.578125 -25.28125 C 46.078125 -25.28125 48.101562 -25.535156 49.65625 -26.046875 C 51.21875 -26.554688 52.425781 -27.28125 53.28125 -28.21875 C 54.132812 -29.15625 54.710938 -30.257812 55.015625 -31.53125 C 55.328125 -32.8125 55.484375 -34.21875 55.484375 -35.75 L 55.484375 -42.046875 C 55.484375 -43.578125 55.328125 -44.992188 55.015625 -46.296875 C 54.710938 -47.597656 54.132812 -48.734375 53.28125 -49.703125 C 52.425781 -50.671875 51.21875 -51.421875 49.65625 -51.953125 C 48.101562 -52.492188 46.078125 -52.765625 43.578125 -52.765625 L 26.046875 -52.765625 Z M 34.8125 -45.359375 L 42.46875 -45.359375 C 44.113281 -45.359375 45.191406 -44.929688 45.703125 -44.078125 C 46.210938 -43.234375 46.46875 -42.269531 46.46875 -41.1875 L 46.46875 -36.6875 C 46.46875 -35.601562 46.210938 -34.632812 45.703125 -33.78125 C 45.191406 -32.9375 44.113281 -32.515625 42.46875 -32.515625 L 34.8125 -32.515625 Z M 34.8125 -45.359375" transform="translate(123.246 218.25)"/></g></g></g><g><g><g><path d="M 45.453125 10.125 L 24.6875 10.125 C 17.25 10.125 11.753906 8.191406 8.203125 4.328125 C 4.660156 0.472656 2.890625 -4.515625 2.890625 -10.640625 L 2.890625 -34.546875 C 2.890625 -37.671875 3.34375 -40.378906 4.25 -42.671875 C 5.164062 -44.972656 6.5 -46.890625 8.25 -48.421875 L 19.3125 -57.703125 C 21.070312 -59.179688 23.3125 -60.285156 26.03125 -61.015625 C 28.757812 -61.753906 31.96875 -62.125 35.65625 -62.125 L 56.421875 -62.125 C 57.785156 -62.125 58.78125 -61.8125 59.40625 -61.1875 C 60.03125 -60.5625 60.34375 -59.570312 60.34375 -58.21875 L 60.34375 -47.921875 C 60.34375 -47.179688 60.242188 -46.554688 60.046875 -46.046875 C 59.847656 -45.535156 59.550781 -45.109375 59.15625 -44.765625 L 48.09375 -35.578125 C 47.863281 -35.347656 47.503906 -35.144531 47.015625 -34.96875 C 46.535156 -34.800781 46.015625 -34.71875 45.453125 -34.71875 L 34.984375 -34.71875 L 34.984375 -20.34375 C 34.984375 -19.144531 35.347656 -18.304688 36.078125 -17.828125 C 36.816406 -17.347656 37.898438 -17.109375 39.328125 -17.109375 L 56.421875 -17.109375 C 57.785156 -17.109375 58.78125 -16.796875 59.40625 -16.171875 C 60.03125 -15.546875 60.34375 -14.550781 60.34375 -13.1875 L 60.34375 -3.0625 C 60.34375 -2.320312 60.242188 -1.695312 60.046875 -1.1875 C 59.847656 -0.675781 59.550781 -0.253906 59.15625 0.078125 L 48.09375 9.28125 C 47.863281 9.507812 47.503906 9.707031 47.015625 9.875 C 46.535156 10.039062 46.015625 10.125 45.453125 10.125 Z M 56.421875 0 C 57.503906 0 58.285156 -0.238281 58.765625 -0.71875 C 59.242188 -1.207031 59.484375 -1.988281 59.484375 -3.0625 L 59.484375 -13.1875 C 59.484375 -14.269531 59.242188 -15.050781 58.765625 -15.53125 C 58.285156 -16.007812 57.503906 -16.25 56.421875 -16.25 L 39.328125 -16.25 C 37.566406 -16.25 36.257812 -16.578125 35.40625 -17.234375 C 34.550781 -17.890625 34.125 -18.925781 34.125 -20.34375 L 34.125 -40.59375 C 34.125 -42.007812 34.550781 -43.070312 35.40625 -43.78125 C 36.257812 -44.5 37.566406 -44.859375 39.328125 -44.859375 L 56.421875 -44.859375 C 57.503906 -44.859375 58.285156 -45.097656 58.765625 -45.578125 C 59.242188 -46.054688 59.484375 -46.835938 59.484375 -47.921875 L 59.484375 -58.21875 C 59.484375 -59.289062 59.242188 -60.066406 58.765625 -60.546875 C 58.285156 -61.035156 57.503906 -61.28125 56.421875 -61.28125 L 35.65625 -61.28125 C 28.5625 -61.28125 23.296875 -59.847656 19.859375 -56.984375 C 16.429688 -54.117188 14.71875 -49.734375 14.71875 -43.828125 L 14.71875 -17.359375 C 14.71875 -11.460938 16.429688 -7.09375 19.859375 -4.25 C 23.296875 -1.414062 28.5625 0 35.65625 0 Z M 51.75 -8.515625 L 51.75 -7.65625 L 37.53125 -7.65625 C 32.03125 -7.65625 28.382812 -8.503906 26.59375 -10.203125 C 24.8125 -11.910156 23.921875 -14.722656 23.921875 -18.640625 L 23.921875 -42.46875 C 23.921875 -46.5 24.828125 -49.363281 26.640625 -51.0625 C 28.453125 -52.769531 32.082031 -53.625 37.53125 -53.625 L 51.75 -53.625 L 51.75 -52.765625 L 37.53125 -52.765625 C 32.539062 -52.765625 29.164062 -51.984375 27.40625 -50.421875 C 25.644531 -48.867188 24.765625 -46.21875 24.765625 -42.46875 L 24.765625 -18.640625 C 24.765625 -14.953125 25.613281 -12.34375 27.3125 -10.8125 C 29.019531 -9.28125 32.425781 -8.515625 37.53125 -8.515625 Z M 51.75 -8.515625" transform="translate(189.795 218.25)"/></g></g></g></svg>